<?xml version="1.0" standalone="no"?><!DOCTYPE svg PUBLIC "-//W3C//DTD SVG 1.1//EN" "http://www.w3.org/Graphics/SVG/1.1/DTD/svg11.dtd"><svg t="1745422112631" class="icon" viewBox="0 0 1033 1024" version="1.1" xmlns="http://www.w3.org/2000/svg" p-id="2771" xmlns:xlink="http://www.w3.org/1999/xlink" width="258.25" height="256"><path d="M154.944 679.232q59.68 116.096 146.272 176.96 45.952 32.288 89.92 39.904 44.608 7.68 80.48-10.784l148.992-76.64q63.776-32.832 56.928-144l195.168-102.944q28.032-14.784 32.96-45.696 20.832-130.496-28.64-224.32-49.312-93.6-166.432-146.88-27.136-12.32-54.24 1.376l-203.392 102.592q-75.264-53.28-132.416-23.872L172.448 301.12l-0.864 0.416q-35.904 18.496-55.552 59.232-19.424 40.256-19.872 96.416-0.896 105.888 58.784 222.016z m45.888-320.736l0.576-0.288q16.64-8.32 39.712-4.32 29.888 5.152 64.064 29.216 73.696 51.776 126.176 153.856 52.48 102.08 51.712 192.192-0.32 41.824-13.504 69.12-10.368 21.44-27.2 30.144-16.832 8.64-40.288 4.608-29.856-5.184-64.064-29.216Q264.32 752.032 211.84 649.92q-52.48-102.08-51.712-192.192 0.352-41.792 13.536-69.12 10.336-21.44 27.2-30.08z m100.48-51.712l48.48-24.96q10.976-5.632 29.76 0.384 24.384 7.776 53.792 32.256 67.392 56.16 120.48 159.488 53.12 103.328 59.584 190.816 2.816 38.176-5.056 62.56-6.048 18.784-17.024 24.416l-48.48 24.96q4-21.92 4.224-47.04 0.896-105.856-58.816-221.984-59.68-116.128-146.24-176.96-20.544-14.432-40.672-23.936z m309.44 137.888q-46.88-91.2-105.312-150.656l179.424-90.528q96.576 44.16 135.584 118.08 39.36 74.72 22.144 183.68l-174.72 92.16q-16.096-72.896-57.12-152.736z" p-id="2772" fill="#2c2c2c"></path></svg>